<mxfile host="app.diagrams.net" modified="2023-05-29T12:59:27.019Z" agent="Mozilla/5.0 (Windows NT 10.0; Win64; x64) AppleWebKit/537.36 (KHTML, like Gecko) Chrome/110.0.0.0 YaBrowser/23.3.3.719 Yowser/2.5 Safari/537.36" etag="Q5dzdZbCJEy9VW2HLFxs" version="21.3.5" type="device">
  <diagram name="Страница 1" id="X9gxekNOWayzlsE6B22d">
    <mxGraphModel dx="989" dy="540" grid="1" gridSize="10" guides="1" tooltips="1" connect="1" arrows="1" fold="1" page="1" pageScale="1" pageWidth="827" pageHeight="1169" math="0" shadow="0">
      <root>
        <mxCell id="0" />
        <mxCell id="1" parent="0" />
        <mxCell id="Wx9i7juD0mEQ2J83Xe5K-3" value="Activity" style="shape=folder;fontStyle=1;spacingTop=10;tabWidth=40;tabHeight=14;tabPosition=left;html=1;whiteSpace=wrap;fillColor=#80d3d3;" vertex="1" parent="1">
          <mxGeometry x="110" y="70" width="80" height="70" as="geometry" />
        </mxCell>
        <mxCell id="Wx9i7juD0mEQ2J83Xe5K-4" value="Adapter" style="shape=folder;fontStyle=1;spacingTop=10;tabWidth=40;tabHeight=14;tabPosition=left;html=1;whiteSpace=wrap;fillColor=#e9967a;" vertex="1" parent="1">
          <mxGeometry x="310" y="100" width="80" height="70" as="geometry" />
        </mxCell>
        <mxCell id="Wx9i7juD0mEQ2J83Xe5K-10" value="" style="edgeStyle=orthogonalEdgeStyle;rounded=0;orthogonalLoop=1;jettySize=auto;html=1;startArrow=none;startFill=0;endArrow=classic;endFill=1;" edge="1" parent="1" source="Wx9i7juD0mEQ2J83Xe5K-5" target="Wx9i7juD0mEQ2J83Xe5K-4">
          <mxGeometry relative="1" as="geometry" />
        </mxCell>
        <mxCell id="Wx9i7juD0mEQ2J83Xe5K-5" value="Fragment" style="shape=folder;fontStyle=1;spacingTop=10;tabWidth=40;tabHeight=14;tabPosition=left;html=1;whiteSpace=wrap;fillColor=#80d3d3;" vertex="1" parent="1">
          <mxGeometry x="430" y="140" width="80" height="70" as="geometry" />
        </mxCell>
        <mxCell id="Wx9i7juD0mEQ2J83Xe5K-6" value="Model" style="shape=folder;fontStyle=1;spacingTop=10;tabWidth=40;tabHeight=14;tabPosition=left;html=1;whiteSpace=wrap;fillColor=#e1afb9;" vertex="1" parent="1">
          <mxGeometry x="260" y="200" width="80" height="70" as="geometry" />
        </mxCell>
        <mxCell id="Wx9i7juD0mEQ2J83Xe5K-7" value="Helper" style="shape=folder;fontStyle=1;spacingTop=10;tabWidth=40;tabHeight=14;tabPosition=left;html=1;whiteSpace=wrap;fillColor=#ce85e7;" vertex="1" parent="1">
          <mxGeometry x="190" y="300" width="80" height="70" as="geometry" />
        </mxCell>
        <mxCell id="Wx9i7juD0mEQ2J83Xe5K-8" value="" style="endArrow=classic;html=1;rounded=0;exitX=1.008;exitY=0.3;exitDx=0;exitDy=0;exitPerimeter=0;entryX=0.116;entryY=-0.01;entryDx=0;entryDy=0;entryPerimeter=0;startArrow=none;startFill=0;endFill=1;" edge="1" parent="1" source="Wx9i7juD0mEQ2J83Xe5K-3" target="Wx9i7juD0mEQ2J83Xe5K-5">
          <mxGeometry width="50" height="50" relative="1" as="geometry">
            <mxPoint x="60" y="330" as="sourcePoint" />
            <mxPoint x="300" y="181" as="targetPoint" />
            <Array as="points">
              <mxPoint x="439" y="91" />
            </Array>
          </mxGeometry>
        </mxCell>
        <mxCell id="Wx9i7juD0mEQ2J83Xe5K-11" value="" style="endArrow=classic;html=1;rounded=0;exitX=0.125;exitY=1.006;exitDx=0;exitDy=0;exitPerimeter=0;entryX=-0.005;entryY=0.288;entryDx=0;entryDy=0;entryPerimeter=0;" edge="1" parent="1" source="Wx9i7juD0mEQ2J83Xe5K-3" target="Wx9i7juD0mEQ2J83Xe5K-7">
          <mxGeometry width="50" height="50" relative="1" as="geometry">
            <mxPoint x="50" y="330" as="sourcePoint" />
            <mxPoint x="100" y="280" as="targetPoint" />
            <Array as="points">
              <mxPoint x="120" y="320" />
            </Array>
          </mxGeometry>
        </mxCell>
        <mxCell id="Wx9i7juD0mEQ2J83Xe5K-12" value="" style="endArrow=classic;html=1;rounded=0;exitX=0.621;exitY=1.01;exitDx=0;exitDy=0;exitPerimeter=0;entryX=1.004;entryY=0.286;entryDx=0;entryDy=0;entryPerimeter=0;" edge="1" parent="1" source="Wx9i7juD0mEQ2J83Xe5K-5" target="Wx9i7juD0mEQ2J83Xe5K-7">
          <mxGeometry width="50" height="50" relative="1" as="geometry">
            <mxPoint x="70" y="350" as="sourcePoint" />
            <mxPoint x="120" y="300" as="targetPoint" />
            <Array as="points">
              <mxPoint x="480" y="320" />
            </Array>
          </mxGeometry>
        </mxCell>
        <mxCell id="Wx9i7juD0mEQ2J83Xe5K-14" value="" style="endArrow=classic;html=1;rounded=0;entryX=-0.009;entryY=0.57;entryDx=0;entryDy=0;entryPerimeter=0;startArrow=none;startFill=0;endFill=1;" edge="1" parent="1" target="Wx9i7juD0mEQ2J83Xe5K-6">
          <mxGeometry width="50" height="50" relative="1" as="geometry">
            <mxPoint x="170" y="140" as="sourcePoint" />
            <mxPoint x="230" y="240" as="targetPoint" />
            <Array as="points">
              <mxPoint x="170" y="240" />
            </Array>
          </mxGeometry>
        </mxCell>
        <mxCell id="Wx9i7juD0mEQ2J83Xe5K-15" value="" style="endArrow=classic;html=1;rounded=0;entryX=1.025;entryY=0.571;entryDx=0;entryDy=0;entryPerimeter=0;exitX=0.126;exitY=1.005;exitDx=0;exitDy=0;exitPerimeter=0;startArrow=none;startFill=0;endFill=1;" edge="1" parent="1" source="Wx9i7juD0mEQ2J83Xe5K-5" target="Wx9i7juD0mEQ2J83Xe5K-6">
          <mxGeometry width="50" height="50" relative="1" as="geometry">
            <mxPoint x="360" y="310" as="sourcePoint" />
            <mxPoint x="410" y="260" as="targetPoint" />
            <Array as="points">
              <mxPoint x="440" y="240" />
            </Array>
          </mxGeometry>
        </mxCell>
        <mxCell id="Wx9i7juD0mEQ2J83Xe5K-17" value="" style="endArrow=classic;html=1;rounded=0;exitX=0.624;exitY=0.193;exitDx=0;exitDy=0;exitPerimeter=0;entryX=0.25;entryY=1;entryDx=0;entryDy=0;entryPerimeter=0;" edge="1" parent="1" source="Wx9i7juD0mEQ2J83Xe5K-7" target="Wx9i7juD0mEQ2J83Xe5K-6">
          <mxGeometry width="50" height="50" relative="1" as="geometry">
            <mxPoint x="320" y="330" as="sourcePoint" />
            <mxPoint x="370" y="280" as="targetPoint" />
            <Array as="points">
              <mxPoint x="240" y="290" />
              <mxPoint x="280" y="290" />
            </Array>
          </mxGeometry>
        </mxCell>
      </root>
    </mxGraphModel>
  </diagram>
</mxfile>
